<?xml version="1.0" encoding="UTF-8"?>
<!DOCTYPE svg PUBLIC "-//W3C//DTD SVG 1.1//EN" "http://www.w3.org/Graphics/SVG/1.1/DTD/svg11.dtd">
<!-- Creator: CorelDRAW 2017 -->
<svg xmlns="http://www.w3.org/2000/svg" xml:space="preserve" width="60mm" height="60mm" version="1.1" style="shape-rendering:geometricPrecision; text-rendering:geometricPrecision; image-rendering:optimizeQuality; fill-rule:evenodd; clip-rule:evenodd"
viewBox="0 0 60 60"
 xmlns:xlink="http://www.w3.org/1999/xlink">
 <defs>
  <style type="text/css">
   <![CDATA[
    .str0 {stroke:black;stroke-width:0.0762;stroke-miterlimit:22.9256}
    .str1 {stroke:red;stroke-width:0.0762;stroke-miterlimit:22.9256}
    .fil0 {fill:black}
    .fil2 {fill:#FDFDFD}
    .fil1 {fill:#FEFEFE}
    .fil3 {fill:red}
   ]]>
  </style>
 </defs>
 <g id="Слой_x0020_1">
  <metadata id="CorelCorpID_0Corel-Layer"/>
  <g id="_1774879656224">
   <path class="fil0 str0" d="M30.6709 32.06c0.7142,-0.3375 3.462,-1.7951 3.9148,-1.9328 -0.0806,0.2764 -0.733,1.516 -0.8891,1.7606l-3.0257 0.1722zm-4.3379 -0.1771c-0.1427,-0.2001 -0.8189,-1.5043 -0.8925,-1.7551 0.5217,0.169 1.3785,0.6677 1.9001,0.9284l1.4363 0.7037c0.0689,0.0331 0.1807,0.0792 0.234,0.1088 0.0262,0.0145 0.0939,0.0568 0.1193,0.0762 0.0262,0.0199 0.0665,0.0924 0.0789,0.0738 0.008,-0.012 0.0273,0.0265 0.0393,0.0453l-2.9154 -0.1811zm16.5217 -2.1709c-0.3383,-0.0013 -1.8221,-0.1268 -2.1215,-0.2 -0.2093,-0.0511 -0.1825,-0.1076 -0.2826,-0.2844 -0.0838,-0.1482 -0.1345,-0.2256 -0.2165,-0.3633 -0.1457,-0.2449 -0.2867,-0.4864 -0.4127,-0.6874 0.2044,0.0456 2.8058,1.3655 3.0333,1.5351zm-22.6491 -1.5348c-0.1422,0.2123 -0.6763,1.2704 -0.9076,1.3329 -0.2414,0.0652 -1.8356,0.2026 -2.1296,0.1811l3.0372 -1.514zm19.2349 -2.3885c-0.0901,-0.2863 -0.2022,-0.6249 -0.2958,-0.927 -0.1532,-0.4948 -0.2563,-0.546 0.035,-0.8486l3.5929 -3.6405 -2.4799 4.059c-0.1944,0.316 -0.6519,1.1569 -0.8522,1.3571zm-18.8571 0.0005l-2.5292 -4.0738c-0.2213,-0.348 -0.6682,-1.0093 -0.8006,-1.339l1.1789 1.191c0.7242,0.7512 1.0728,1.1529 1.8142,1.8302 1.1046,1.0092 0.8282,0.8298 0.3367,2.3916zm29.387 9.2793c0.1271,-0.3612 -0.1831,-0.4825 -0.4031,-0.7268 -0.5554,-0.6163 -3.6544,-2.8791 -4.4883,-3.6693 -0.7587,-0.7191 -0.5907,-1.8764 -1.2247,-2.3034 -0.5522,-0.3718 -3.236,-1.3501 -3.8512,-1.9524 0.7252,-1.1673 1.1923,-1.9492 1.8423,-3.2093 0.5416,-1.0499 1.5818,-2.6035 1.2709,-3.5291 -0.563,-0.0059 -6.4384,2.8614 -7.7321,3.4892 -1.0032,0.4868 -0.87,0.5907 -1.6147,0.426 -0.625,-0.1383 -1.2446,-0.264 -1.873,-0.3907 -0.4284,-0.0864 -1.5247,-0.37 -1.8832,-0.3704 -0.3547,-0.0004 -1.4567,0.2844 -1.8835,0.3698 -2.7913,0.5586 -1.9641,0.6959 -3.4882,-0.0336 -1.3482,-0.6453 -7.1071,-3.4854 -7.7455,-3.4893 -0.2451,1.0751 0.7079,2.3445 1.3061,3.5638 0.6909,1.4086 1.118,1.983 1.8197,3.1736 -0.4577,0.4392 -2.318,1.2226 -3.0716,1.5725 -0.7342,0.3408 -0.9184,0.2877 -1.2307,1.085 -0.1078,0.2748 -0.2044,0.5677 -0.298,0.8595 -0.1983,0.6185 -0.5904,0.8551 -1.0799,1.2333 -0.2345,0.1811 -0.4173,0.3395 -0.6397,0.517l-2.5607 2.0671c-0.2522,0.1877 -1.0027,0.8401 -1.1412,1.112 -0.003,0.0321 0.431,0.9041 1.1921,0.8461 1.7798,-0.1357 3.7404,-0.3935 5.5564,-0.5788 1.1622,-0.1186 1.2394,-0.2024 1.5738,0.3156 0.2891,0.4477 0.5556,0.2851 1.5358,0.0774l3.3588 -0.759c-0.0347,-0.8009 -0.7773,-2.0765 -0.7668,-2.6767 0.0065,-0.3708 1.5991,-4.2975 1.8611,-4.9525l0.7268 -1.8186c0.1819,-0.4877 0.1736,-0.4345 0.3472,-0.4556 0.1086,0.2987 -1.423,5.0492 -1.7148,6.1473 -0.17,0.6397 -0.1756,0.6315 0.054,1.2339 0.2202,0.5776 0.6839,1.7215 0.9795,2.1412 0.6332,0.1047 1.326,-0.2261 2.0275,-0.2099 0.6973,1.1184 2.4382,6.6041 2.7612,6.9285 0.3179,-0.0274 0.2824,-0.2057 0.5201,-0.2046 0.2378,0.0011 0.2004,0.1798 0.5213,0.2041 0.3122,-0.3251 2.0787,-5.8473 2.7597,-6.9288 0.7004,-0.013 1.341,0.2962 1.9841,0.2194 0.2758,-0.2431 0.8365,-1.6741 1.0197,-2.1545 0.2497,-0.6547 0.2217,-0.5941 0.0458,-1.272 -0.2816,-1.0855 -1.8269,-5.779 -1.7019,-6.1052 0.1829,0.0256 0.1338,-0.0146 0.246,0.2106l1.8098 4.5537c0.1601,0.4036 0.885,2.1944 0.8725,2.5097 -0.009,0.2272 -0.3044,1.018 -0.3935,1.2728 -0.1276,0.3649 -0.3516,0.943 -0.3702,1.3579 1.0754,0.2061 2.2001,0.5455 3.3222,0.7458 0.595,0.1063 1.2393,0.4219 1.5521,-0.0316 0.1758,-0.2548 0.1715,-0.4379 0.5944,-0.4327 1.0112,0.0123 4.8642,0.5055 6.4169,0.644 0.4538,0.0406 0.4836,0.0807 0.7779,-0.173 0.2142,-0.1846 0.3791,-0.4006 0.5008,-0.449z"/>
   <path class="fil0 str0" d="M30.0132 41.38c-0.3617,-0.0007 -0.3557,0.3113 -0.8936,0.2696 -0.4863,-1.065 -2.1611,-5.9744 -2.442,-6.3795 -0.3661,-0.0656 -0.3866,-0.0208 -0.659,0.1482 -0.0059,0.3571 1.2288,3.176 1.4541,3.7199 0.4996,1.2062 0.9997,2.4529 1.4896,3.6448l2.1022 0.0017c0.4648,-1.2138 1.0141,-2.4582 1.505,-3.6888 0.1747,-0.4378 1.5147,-3.461 1.4067,-3.6738 -0.1212,-0.239 -0.5695,-0.1903 -0.6286,-0.1533 -0.132,0.0829 -2.1055,5.6272 -2.4418,6.3803 -0.54,0.0447 -0.5301,-0.2684 -0.8926,-0.2691z"/>
   <path class="fil0 str0" d="M17.8812 35.99c0.0737,-0.3636 0.0115,-0.5332 -0.4196,-0.4998l-2.5998 0.3015c-0.5018,0.0494 -3.1778,0.284 -3.4116,0.4598 0.0892,0.2788 0.7431,0.8992 1.2494,0.8478 0.8071,-0.082 4.7471,-0.9285 5.1816,-1.1093z"/>
   <path class="fil0 str0" d="M42.392 36.0784c0.6946,0.1975 2.4735,0.5227 3.3301,0.7185 1.5986,0.3652 1.6651,0.4801 2.3874,-0.0345 0.2294,-0.1635 0.3837,-0.2575 0.4666,-0.5109 -0.139,-0.1056 -6.1365,-0.8384 -6.3343,-0.7355 -0.2162,0.1124 -0.2052,0.4614 0.1502,0.5624z"/>
   <path class="fil1 str0" d="M20.5834 25.7892c0.4915,-1.5618 0.7679,-1.3824 -0.3367,-2.3916 -0.7414,-0.6773 -1.09,-1.079 -1.8142,-1.8302l-1.1789 -1.191c0.1324,0.3297 0.5793,0.991 0.8006,1.339l2.5292 4.0738z"/>
   <path class="fil2 str0" d="M39.4405 25.7887c0.2003,-0.2002 0.6578,-1.0411 0.8522,-1.3571l2.4799 -4.059 -3.5929 3.6405c-0.2913,0.3026 -0.1882,0.3538 -0.035,0.8486 0.0936,0.3021 0.2057,0.6407 0.2958,0.927z"/>
   <path class="fil0 str0" d="M16.4981 27.5544c0.0683,0.0046 2.8358,-0.9757 2.4749,-1.9524 -0.1188,-0.3214 -0.3889,-0.832 -0.5902,-0.9583 -0.4108,0.1547 -1.9664,2.2902 -1.8847,2.9107z"/>
   <path class="fil0 str0" d="M43.5246 27.5496c0.0956,-0.6147 -1.475,-2.7564 -1.8794,-2.9056 -0.2021,0.1274 -0.4373,0.5878 -0.5754,0.9143 -0.4362,1.0312 2.4246,1.9942 2.4548,1.9913z"/>
   <path class="fil3 str1" d="M26.333 31.8829l2.9154 0.1811c-0.012,-0.0188 -0.0313,-0.0573 -0.0393,-0.0453 -0.0124,0.0186 -0.0527,-0.0539 -0.0789,-0.0738 -0.0254,-0.0194 -0.0931,-0.0617 -0.1193,-0.0762 -0.0533,-0.0296 -0.1651,-0.0757 -0.234,-0.1088l-1.4363 -0.7037c-0.5216,-0.2607 -1.3784,-0.7594 -1.9001,-0.9284 0.0736,0.2508 0.7498,1.555 0.8925,1.7551z"/>
   <path class="fil3 str1" d="M30.6709 32.06l3.0257 -0.1722c0.1561,-0.2446 0.8085,-1.4842 0.8891,-1.7606 -0.4528,0.1377 -3.2006,1.5953 -3.9148,1.9328z"/>
   <path class="fil3 str1" d="M42.8547 29.712c-0.2275,-0.1696 -2.8289,-1.4895 -3.0333,-1.5351 0.126,0.201 0.267,0.4425 0.4127,0.6874 0.082,0.1377 0.1327,0.2151 0.2165,0.3633 0.1001,0.1768 0.0733,0.2333 0.2826,0.2844 0.2994,0.0732 1.7832,0.1987 2.1215,0.2z"/>
   <path class="fil3 str1" d="M17.1684 29.6912c0.294,0.0215 1.8882,-0.1159 2.1296,-0.1811 0.2313,-0.0625 0.7654,-1.1206 0.9076,-1.3329l-3.0372 1.514z"/>
  </g>
 </g>
</svg>
